<svg xmlns="http://www.w3.org/2000/svg" width="160" height="160" viewBox="0 0 160 160" fill="none">
  <circle cx="80" cy="80" r="76" fill="#ECFEFF"/>
  <rect x="30" y="48" width="42" height="78" rx="12" fill="#0F766E"/>
  <rect x="88" y="48" width="42" height="78" rx="12" fill="#0284C7"/>
  <rect x="36" y="40" width="30" height="8" rx="4" fill="#0F172A"/>
  <rect x="94" y="40" width="30" height="8" rx="4" fill="#0F172A"/>
  <circle cx="45" cy="77" r="3" fill="#ECFEFF"/>
  <circle cx="58" cy="77" r="3" fill="#ECFEFF"/>
  <path d="M43 89C47 93 56 93 60 89" stroke="#ECFEFF" stroke-width="3" stroke-linecap="round"/>
  <circle cx="103" cy="77" r="3" fill="#E0F2FE"/>
  <circle cx="116" cy="77" r="3" fill="#E0F2FE"/>
  <path d="M101 89C105 93 114 93 118 89" stroke="#E0F2FE" stroke-width="3" stroke-linecap="round"/>
  <circle cx="43" cy="129" r="5" fill="#0F172A"/>
  <circle cx="59" cy="129" r="5" fill="#0F172A"/>
  <circle cx="101" cy="129" r="5" fill="#0F172A"/>
  <circle cx="117" cy="129" r="5" fill="#0F172A"/>
  <path d="M18 35C24 26 35 24 44 30" stroke="#14B8A6" stroke-width="4" stroke-linecap="round"/>
  <path d="M121 30C130 24 141 26 147 35" stroke="#38BDF8" stroke-width="4" stroke-linecap="round"/>
</svg>
