<svg xmlns="http://www.w3.org/2000/svg" width="200" height="150" viewBox="0 0 200 150" fill="none">
  <rect width="200" height="150" rx="22" fill="#F0FDFA"/>
  <rect x="16" y="72" width="114" height="36" rx="10" fill="#0284C7"/>
  <rect x="36" y="52" width="68" height="26" rx="8" fill="#0EA5E9"/>
  <rect x="130" y="80" width="44" height="28" rx="8" fill="#0F766E"/>
  <rect x="138" y="70" width="26" height="14" rx="5" fill="#14B8A6"/>
  <circle cx="47" cy="112" r="10" fill="#0F172A"/>
  <circle cx="113" cy="112" r="10" fill="#0F172A"/>
  <circle cx="162" cy="112" r="10" fill="#0F172A"/>
  <rect x="20" y="44" width="20" height="56" rx="6" fill="#0F766E"/>
  <rect x="52" y="44" width="20" height="56" rx="6" fill="#0284C7"/>
  <circle cx="26" cy="60" r="2.5" fill="#ECFEFF"/>
  <circle cx="34" cy="60" r="2.5" fill="#ECFEFF"/>
  <path d="M24 68C27 71 33 71 36 68" stroke="#ECFEFF" stroke-width="2.5" stroke-linecap="round"/>
  <circle cx="58" cy="60" r="2.5" fill="#E0F2FE"/>
  <circle cx="66" cy="60" r="2.5" fill="#E0F2FE"/>
  <path d="M56 68C59 71 65 71 68 68" stroke="#E0F2FE" stroke-width="2.5" stroke-linecap="round"/>
</svg>
